<?xml version="1.0" encoding="UTF-8"?>
<svg id="Capa_2" data-name="Capa 2" xmlns="http://www.w3.org/2000/svg" viewBox="0 0 925.03 926.46">
  <defs>
    <style>
      .cls-1 {
        fill: #14dde5;
      }

      .cls-2 {
        fill: #fff;
      }

      .cls-3 {
        fill: #5619bf;
      }
    </style>
  </defs>
  <g id="Capa_1-2" data-name="Capa 1">
    <g>
      <path class="cls-3" d="M205.21,926.46c-12.59,0-23.21-1.98-34.48-3.79-24.49-3.94-47.33-12.59-68.44-25.37C44.75,862.48,6.99,804.42,1.58,737.04c-.82-10.25-1.49-19.79-1.48-30.04l.1-71.97-.04-80.98.02-68.04.03-85.95-.07-76.01.05-57.99L0,223.98c-.27-60.18,13.91-109.6,54.23-154.93,4.61-5.19,8.98-9.66,14.08-14.14C102.82,23.78,143.04,5.07,189.61,1.27c4.33-.35,8.37-1.22,12.97-1.22l174.57.06,8.45.06,32.55.1,8.51-.05,110.4-.04,8.67-.02L713.22,0c10.97-.01,20.43.39,31.33,1.83,71.58,9.44,136.06,58.84,163.4,125.88,11.66,28.59,17.16,58.45,17.07,89.42l-.19,67.1-.06,379.59-.1,54.2c-.13,72.81-37.53,139.12-99.13,177.51-30.24,18.85-65.85,30.67-102.37,30.69l-517.97.23ZM333.69,721.6l-107.34.82c-9.54.07-20.22-5.68-20.25-16.43l-.34-108.76v-11.49s-.11-256.22-.11-256.22v-107.3c0-10.23,6.81-18.23,16.86-18.23h109.8c5.48,0,10.52.87,15.83,1.34,36.27,3.22,70.39,14.51,101.69,33.11,69.92,41.55,113.62,108.8,125.75,189.36l14.68-36.3c-15.97-59.38-50.54-112.87-99.34-150.75-24.7-19.17-51.12-34.11-80.74-44.22-23.41-8-47.43-13.71-72.44-13.7l-117.8.03c-19.93,0-35.48,19.13-35.51,38.11l-.22,128.42.06,35.19-.18,214.97-.11,103.97c-.01,11.81,5.17,23.42,14.26,30.69,5.52,4.41,13.94,9.28,21.7,9.28l110.87.03c22.91,0,56.51-6.62,78.27-14.09,61.68-21.18,113.05-62.7,147.75-117.86,15.32-24.34,26.27-50.8,34.46-78.31.7-2.36,1.34-4.31,1.39-6.44-11.09,12.27-20.96,23.08-33.25,33.14-26,65.06-82.22,120.78-147.7,145.51-25.2,9.52-50.54,15.9-78.05,16.11ZM496.35,544.12l-19.54,13.53c-2.94,2.03-3.08,6.14-1.08,9.19l14.68,22.38c1.36,2.08,4.95,3.36,7.29,1.96,4.15-2.49,25.29-14.79,23.66-18.67l-2.59-6.17,18.2-12.91c14.72-10.44,27.36-22.19,38.04-36.69,10.78-14.64,19.85-29.19,26.66-46.21l38.31-95.67,25.96-64.18,6.07-14.84c26.41,5.41,51.53-7.73,62.61-32.65,7.73-17.38,6.49-37.67-4.66-54.63-9.25-14.06-25.1-25.11-44.14-26.03-20.15-.98-40.05,9.51-50.68,26.76-12.97,21.03-10.85,46.81,3.95,65.99l8.24-18.14c.91-2,3.06-6.61,2.49-8.75-5.53-20.64,7.1-40.66,28.38-43.88,10.89-1.65,22.21,2.56,29.39,9.87,7.98,8.13,11.19,18.12,10.29,29.85-1.39,18.14-17.65,32.91-36.95,30.8l11.75-31.38c2.58-6.9-1.35-13.28-8.19-14.66-7.21-1.46-10.12,3.51-12.82,10.23l-50.08,124.72-26.45,66.54c-7.13,17.95-13.54,35.28-23.04,52.12-18.19,32.28-36.27,44.7-65.58,65.59-3.73-.82-4.57-7.97-10.18-4.08ZM541.65,461.03c.1,3.24,1.46,4.7,4.27,4.81,2.52.09,4.11-1.85,4.07-4.88-.48-33.74-7.5-66.48-21.83-96.78-31.15-65.83-90.16-113.55-161.6-128.19-14.48-2.97-28.42-4.07-43.21-4-2.41.01-4.85,2.4-4.57,4.29.2,1.39,2.2,4.02,3.74,4.09l20.53.96c103.06,4.82,194.78,101.88,198.6,219.7ZM503.03,442.93l1.82,21.43c1.01.89,3.63,1.7,4.76,1.63s3.53-1.77,3.53-3.12c.01-20.37-3.28-40.86-9.39-60.35-23.82-76.04-92.88-129.07-172.17-133.86-3.41-.21-12.06-.97-12.29,3.77-.09,1.83,1.78,4.32,4.07,4.4,25.82.88,50.33,6.61,73.69,17.15,58.93,26.57,100.47,84.13,105.98,148.95ZM477.49,722.18c-10.48,8.86-25.02,15.56-36.39,20.74,4.05.26,7.97.87,11.55.85l88.19-.46c24.93-.13,49.09-6.21,71.78-16.32,45.41-20.24,82.87-54.78,105.15-99.28,13.59-27.14,22.64-56.52,22.71-87.22l.59-246.79c-7.52,6.53-13.33,11.56-21.58,16.02l-.11,230.14c0,6.52-.66,12.34-1.66,18.41-4.55,27.59-13.52,53.77-28.92,77.03-21.65,32.69-48.77,56-84.81,71.65-22.51,9.77-45.82,15.03-70.64,15.09l-55.85.13ZM467.76,461.04c.1,3.02,1.59,4.81,4.14,4.81s4.58-1.76,4.53-4.84c-.68-49.52-23.4-95.38-62.9-125.09-25.55-19.22-59.4-31.26-91.63-30.11-1.92.07-3.79,3.24-3.45,4.69.32,1.36,2.25,3.36,3.84,3.47,11.02.81,20.75,1.18,31.37,3.65,45.8,10.64,83.95,42.71,101.95,86.13,7.71,18.6,11.49,37.27,12.15,57.29ZM334.03,583.48c38.91-4.42,73.15-28.16,91.33-61.92,16.32-30.31,19.44-64,8.75-96.48-6.45-19.59-16.98-37.41-32.19-51.4-17.82-16.38-39.25-26.93-63.06-30.97-13.6-2.3-26.85-1.11-40.44.23-6.47.64-10.6,4.36-10.6,11.26l.12,220.3c0,5.84,5.94,9.1,10.54,9.15,11.91.12,22.87,1.27,35.54-.17ZM552.3,666.27c25.48-4.52,48-15.54,66.69-32.55,27.4-24.92,43.61-58.58,45.51-95.61.3-5.8,1.29-11.31.7-17.14-.94-9.15-.29-17.76-.18-26.93l.24-20.03-.15-52.94-.1-33.03c.22-5.47.16-10.65-.76-16.35l-11.47,30.37-9.4,23.18.22,97.71c.04,16.08-1.59,30.33-6.49,45.63-9.16,28.57-28.44,52.92-55.7,65.69l-17.58,8.24-18.04,23.3c1.09.52,4.04.91,6.52.47ZM478.53,597.62c1.02-10.94-4.62-19.91-14.15-23.07-9.04-3-19.1.46-24.54,9.24-4.26,6.87-3.72,15.83,1.04,22.91,3.85,5.73,11.97,10.02,19.77,8.94,9.54-1.33,16.94-7.94,17.88-18.01ZM338.88,619.33c27.04-2.75,51.94-12.58,73.26-29.5,1.53-1.22,2.4-4.47,1.56-5.77s-3.14-1.93-5.47-1.99c-24.75,19.52-55.1,29.33-86.75,29.89-2.29.04-4.71,1.89-5.06,3.59-1.49,7.07,18.04,4.24,22.47,3.79ZM321.09,657.02c40.65.52,79.25-12.13,111.4-35.8,2.2-1.62,2.71-4.3,1.96-6.14-.58-1.41-4.48-2.85-5.86-1.84-31.87,23.3-68.36,36.13-107.81,35.09-2.01-.05-4.86,2.83-4.92,4.38s2.18,4.27,5.23,4.31ZM442.7,659.03c6.45-3.85,12.84-9.06,18.56-13.88,1.07-.9.92-4.47.22-5.51s-3.04-2.16-4.64-1.94c-38.29,31.45-85.73,47.65-135.25,47.8-2.7,0-5.4,2.99-5.11,4.94.24,1.61,2.88,4.3,5.07,4.25,48.47-1.07,80.13-11.19,121.15-35.66Z"/>
      <path class="cls-2" d="M333.69,721.6c27.51-.21,52.86-6.59,78.05-16.11,65.48-24.73,121.7-80.45,147.7-145.51,12.29-10.06,22.16-20.88,33.25-33.14-.05,2.14-.69,4.08-1.39,6.44-8.19,27.51-19.15,53.97-34.46,78.31-34.71,55.16-86.08,96.68-147.75,117.86-21.76,7.47-55.36,14.1-78.27,14.09l-110.87-.03c-7.76,0-16.18-4.87-21.7-9.28-9.09-7.27-14.27-18.88-14.26-30.69l.11-103.97.18-214.97-.06-35.19.22-128.42c.03-18.98,15.58-38.1,35.51-38.11l117.8-.03c25.01,0,49.03,5.71,72.44,13.7,29.62,10.12,56.04,25.05,80.74,44.22,48.8,37.88,83.37,91.37,99.34,150.75l-14.68,36.3c-12.14-80.56-55.84-147.8-125.75-189.36-31.29-18.6-65.41-29.89-101.69-33.11-5.31-.47-10.35-1.33-15.83-1.33h-109.8c-10.05,0-16.86,7.99-16.86,18.22v107.3s.11,256.22.11,256.22v11.49s.35,108.76.35,108.76c.03,10.75,10.72,16.5,20.25,16.43l107.34-.82Z"/>
      <path class="cls-2" d="M334.03,583.48c-12.66,1.44-23.62.28-35.54.17-4.6-.04-10.54-3.3-10.54-9.15l-.12-220.3c0-6.9,4.13-10.63,10.6-11.26,13.59-1.34,26.85-2.53,40.44-.23,23.81,4.03,45.24,14.59,63.06,30.97,15.21,13.98,25.74,31.81,32.19,51.4,10.69,32.49,7.57,66.18-8.75,96.48-18.18,33.76-52.43,57.51-91.33,61.92ZM309.73,504.51l.46,24.52c.11,6,.28,12.07-.1,17.95-.33,5.05-.98,9.24.14,14.51,29.97,3.66,58.75-6.06,80.06-27.75,23.13-23.55,32.86-57.61,26.66-90.05-7.49-39.2-36.82-70.11-75.77-78.58-10.23-2.23-19.92-.87-30.38-.98-2.97,12.01.93,7.53-1.03,25.25-.27,2.46.42,5.94.42,8.56v23.33c13.46-4.37,25.75-.6,36.25,7.88,20.48,16.54,21.59,47.89,2.02,65.77-10.76,9.83-24.82,12.71-38.7,9.58ZM325.31,483.76c10.45-2.53,15.71-11.79,15.46-21.79s-7.68-19.63-18.36-20.14c-4.05-.19-12.16.42-12.51,5.44-.7,9.92-.96,20.15.15,29.99.68,6.01,10.07,7.75,15.26,6.49Z"/>
      <path class="cls-2" d="M496.35,544.12c5.61-3.88,6.45,3.26,10.18,4.08,29.31-20.89,47.39-33.32,65.58-65.59,9.49-16.84,15.9-34.17,23.04-52.12l26.45-66.54,50.08-124.72c2.7-6.72,5.61-11.69,12.82-10.23s10.78,7.77,8.19,14.66l-11.75,31.38c19.29,2.11,35.55-12.66,36.95-30.8.9-11.73-2.31-21.73-10.29-29.85-7.19-7.32-18.5-11.52-29.39-9.87-21.28,3.22-33.91,23.23-28.38,43.88.57,2.13-1.58,6.74-2.49,8.75l-8.24,18.14c-14.8-19.17-16.92-44.95-3.95-65.99,10.63-17.24,30.53-27.74,50.68-26.76,19.05.93,34.9,11.97,44.14,26.03,11.15,16.96,12.39,37.25,4.66,54.63-11.08,24.92-36.21,38.07-62.61,32.65l-6.07,14.84-25.96,64.18-38.31,95.67c-6.82,17.02-15.89,31.57-26.66,46.21-10.68,14.5-23.32,26.25-38.04,36.69l-18.2,12.91,2.59,6.17c1.64,3.89-19.51,16.18-23.66,18.67-2.34,1.4-5.93.12-7.29-1.96l-14.68-22.38c-2-3.05-1.86-7.16,1.08-9.19l19.54-13.53Z"/>
      <path class="cls-2" d="M477.49,722.18l55.85-.13c24.82-.06,48.13-5.32,70.64-15.09,36.05-15.65,63.16-38.96,84.81-71.65,15.4-23.25,24.37-49.44,28.92-77.03,1-6.07,1.66-11.89,1.66-18.41l.11-230.14c8.25-4.45,14.06-9.48,21.58-16.02l-.59,246.79c-.07,30.7-9.12,60.08-22.71,87.22-22.28,44.5-59.75,79.04-105.15,99.28-22.69,10.11-46.86,16.19-71.78,16.32l-88.19.46c-3.58.02-7.5-.59-11.55-.85,11.37-5.18,25.91-11.89,36.39-20.74Z"/>
      <path class="cls-2" d="M552.3,666.27c-2.48.44-5.42.06-6.52-.47l18.04-23.3,17.58-8.24c27.26-12.78,46.54-37.12,55.7-65.69,4.91-15.3,6.53-29.55,6.49-45.63l-.22-97.71,9.4-23.18,11.47-30.37c.92,5.7.98,10.88.76,16.35l.1,33.03.15,52.94-.24,20.03c-.11,9.17-.76,17.78.18,26.93.6,5.83-.4,11.34-.7,17.14-1.9,37.03-18.11,70.69-45.51,95.61-18.69,17-41.21,28.02-66.69,32.55Z"/>
      <path class="cls-2" d="M541.65,461.03c-3.82-117.82-95.54-214.88-198.6-219.7l-20.53-.96c-1.55-.07-3.54-2.7-3.74-4.09-.28-1.89,2.16-4.28,4.57-4.29,14.79-.07,28.73,1.03,43.21,4,71.44,14.64,130.45,62.36,161.6,128.19,14.34,30.3,21.35,63.04,21.83,96.78.04,3.03-1.55,4.98-4.07,4.88-2.81-.11-4.17-1.57-4.27-4.81Z"/>
      <path class="cls-2" d="M503.03,442.93c-5.51-64.82-47.04-122.38-105.98-148.95-23.37-10.53-47.88-16.27-73.69-17.15-2.29-.08-4.16-2.57-4.07-4.4.24-4.74,8.88-3.97,12.29-3.77,79.29,4.79,148.35,57.82,172.17,133.86,6.11,19.49,9.4,39.98,9.39,60.35,0,1.34-2.4,3.05-3.53,3.12s-3.75-.73-4.76-1.63l-1.82-21.43Z"/>
      <path class="cls-2" d="M467.76,461.04c-.65-20.02-4.44-38.69-12.15-57.29-18-43.43-56.14-75.5-101.95-86.13-10.62-2.47-20.35-2.84-31.37-3.65-1.59-.12-3.52-2.11-3.84-3.47-.35-1.45,1.53-4.62,3.45-4.69,32.23-1.15,66.08,10.89,91.63,30.11,39.5,29.71,62.23,75.57,62.9,125.09.04,3.08-2.04,4.84-4.53,4.84s-4.04-1.79-4.14-4.81Z"/>
      <path class="cls-2" d="M442.7,659.03c-41.03,24.47-72.68,34.58-121.15,35.66-2.19.05-4.83-2.64-5.07-4.25-.29-1.95,2.42-4.93,5.11-4.94,49.52-.15,96.96-16.35,135.25-47.8,1.59-.22,3.93.9,4.64,1.94s.85,4.61-.22,5.51c-5.73,4.82-12.12,10.04-18.56,13.88Z"/>
      <path class="cls-1" d="M478.53,597.62c-.94,10.07-8.34,16.68-17.88,18.01-7.8,1.08-15.92-3.21-19.77-8.94-4.76-7.08-5.3-16.04-1.04-22.91,5.44-8.77,15.5-12.24,24.54-9.24,9.53,3.17,15.17,12.13,14.15,23.07Z"/>
      <path class="cls-2" d="M321.09,657.02c-3.05-.04-5.28-2.74-5.23-4.31s2.91-4.43,4.92-4.38c39.45,1.04,75.94-11.78,107.81-35.09,1.38-1.01,5.28.43,5.86,1.84.75,1.83.24,4.52-1.96,6.14-32.15,23.67-70.75,36.32-111.4,35.8Z"/>
      <path class="cls-2" d="M338.88,619.33c-4.44.45-23.96,3.29-22.47-3.79.36-1.7,2.77-3.55,5.06-3.59,31.65-.55,62-10.37,86.75-29.89,2.33.06,4.59.63,5.47,1.99s-.02,4.56-1.56,5.77c-21.32,16.93-46.22,26.75-73.26,29.5Z"/>
      <path class="cls-3" d="M309.73,504.51c13.88,3.13,27.94.25,38.7-9.58,19.57-17.88,18.46-49.24-2.02-65.77-10.5-8.48-22.78-12.25-36.26-7.88v-23.33c.01-2.62-.68-6.1-.4-8.56,1.96-17.72-1.94-13.24,1.03-25.25,10.47.11,20.15-1.24,30.38.98,38.95,8.47,68.28,39.38,75.77,78.58,6.2,32.45-3.52,66.5-26.66,90.05-21.31,21.69-50.09,31.41-80.06,27.75-1.11-5.26-.46-9.46-.14-14.51.38-5.89.21-11.96.1-17.95l-.46-24.52Z"/>
      <path class="cls-3" d="M325.31,483.76c-5.19,1.26-14.59-.48-15.26-6.49-1.11-9.84-.85-20.08-.15-29.99.35-5.03,8.46-5.64,12.51-5.44,10.68.51,18.1,9.68,18.36,20.14s-5.02,19.26-15.46,21.79Z"/>
    </g>
  </g>
</svg>